<?xml version="1.0" encoding="utf-8"?>
<!-- Generator: Adobe Illustrator 26.5.0, SVG Export Plug-In . SVG Version: 6.00 Build 0)  -->
<svg version="1.1" id="Layer_1" xmlns="http://www.w3.org/2000/svg" xmlns:xlink="http://www.w3.org/1999/xlink" x="0px" y="0px"
	 viewBox="0 0 512 512" style="enable-background:new 0 0 512 512;" xml:space="preserve">
<style type="text/css">
	.st0{clip-path:url(#SVGID_00000164512244192249676170000011037754927093493388_);fill:#004186;}
	.st1{clip-path:url(#SVGID_00000177484043455876482800000006372748676113088134_);fill:#004186;}
	.st2{clip-path:url(#SVGID_00000027567873601469748810000006078453882272791430_);fill:#004186;}
	.st3{clip-path:url(#SVGID_00000148620136879583709470000011436951364471417250_);fill:#004186;}
	.st4{clip-path:url(#SVGID_00000103237217074112437740000001257133781543634586_);fill:#004186;}
	.st5{clip-path:url(#SVGID_00000152947186124042043480000016574067844562789018_);fill:#004186;}
	.st6{clip-path:url(#SVGID_00000013903387627106591720000009594509955241398426_);fill:#004186;}
</style>
<g id="XMLID_38_">
	<g id="XMLID_42_">
		<g>
			<defs>
				<rect id="SVGID_1_" y="202.56" width="512" height="106.89"/>
			</defs>
			<clipPath id="SVGID_00000179635437145443832050000002140272888504830084_">
				<use xlink:href="#SVGID_1_"  style="overflow:visible;"/>
			</clipPath>
			<path id="XMLID_43_" style="clip-path:url(#SVGID_00000179635437145443832050000002140272888504830084_);fill:#004186;" d="
				M127.93,266.66h6.59l20.34,42.78l21.18-3.93l-23.85-43.77c9.54-5.75,16.97-14.45,16.97-29.74c0-17.39-12.91-26.79-32.12-26.79
				h-34.93v102.54h20.2v-88.79h10.52c8,0,16.13,3.93,16.13,15.57c0,7.43-4.35,18.38-18.1,18.52h-2.95L127.93,266.66L127.93,266.66z"
				/>
		</g>
	</g>
	<g id="XMLID_45_">
		<g>
			<defs>
				<rect id="SVGID_00000008120852760478880050000008672596994305291193_" y="202.56" width="512" height="106.89"/>
			</defs>
			<clipPath id="SVGID_00000140006973418006459180000010851757157668318356_">
				<use xlink:href="#SVGID_00000008120852760478880050000008672596994305291193_"  style="overflow:visible;"/>
			</clipPath>
			<path id="XMLID_46_" style="clip-path:url(#SVGID_00000140006973418006459180000010851757157668318356_);fill:#004186;" d="
				M85.85,260.35v42.64c-10.24,3.65-21.04,6.31-31.98,6.31C20.9,309.3,0,285.74,0,255.44c0-28.2,20.76-52.74,54.43-52.74
				c10.52,0,21.04,3.51,27.21,8l-6.17,12.2c-5.19-2.95-13.19-5.47-20.62-5.47c-20.48,0-34.51,14.87-34.51,38.29
				c0,24.41,16.13,38.86,32.54,38.86c5.19,0,9.4-0.56,13.47-2.52v-31.7H85.85z"/>
		</g>
	</g>
	<g id="XMLID_48_">
		<g>
			<defs>
				<rect id="SVGID_00000078027402546255015020000007158440385794951320_" y="202.56" width="512" height="106.89"/>
			</defs>
			<clipPath id="SVGID_00000057840361191347677930000003642270469051629204_">
				<use xlink:href="#SVGID_00000078027402546255015020000007158440385794951320_"  style="overflow:visible;"/>
			</clipPath>
			
				<rect id="XMLID_49_" x="187.13" y="205.36" style="clip-path:url(#SVGID_00000057840361191347677930000003642270469051629204_);fill:#004186;" width="19.92" height="101.14"/>
		</g>
	</g>
	<g id="XMLID_51_">
		<g>
			<defs>
				<rect id="SVGID_00000116947328594737331150000012518799683621771176_" y="202.56" width="512" height="106.89"/>
			</defs>
			<clipPath id="SVGID_00000048484772255607772590000004237899120002360253_">
				<use xlink:href="#SVGID_00000116947328594737331150000012518799683621771176_"  style="overflow:visible;"/>
			</clipPath>
			
				<polygon id="XMLID_52_" style="clip-path:url(#SVGID_00000048484772255607772590000004237899120002360253_);fill:#004186;" points="
				280.69,218.41 248.14,218.41 248.14,251.37 271.71,251.37 271.71,264.42 248.14,264.42 248.14,306.5 228.23,306.5 228.23,205.36 
				280.69,205.36 			"/>
		</g>
	</g>
	<g id="XMLID_54_">
		<g>
			<defs>
				<rect id="SVGID_00000028309481145238480500000002732160457125768322_" y="202.56" width="512" height="106.89"/>
			</defs>
			<clipPath id="SVGID_00000109024534786885717010000000158756369104090254_">
				<use xlink:href="#SVGID_00000028309481145238480500000002732160457125768322_"  style="overflow:visible;"/>
			</clipPath>
			<path id="XMLID_57_" style="clip-path:url(#SVGID_00000109024534786885717010000000158756369104090254_);fill:#004186;" d="
				M285.18,254.46c0-28.9,20.2-51.9,47.55-51.9c27.49,0,47.55,23,47.55,51.9c0,30.86-18.24,54.85-47.55,54.85
				C303.41,309.3,285.18,285.18,285.18,254.46 M359.94,254.46c0-18.94-8-38.44-27.21-38.44c-19.08,0-27.21,19.36-27.21,38.44
				c0,19.78,7.15,41.38,27.21,41.38C352.79,295.84,359.94,274.24,359.94,254.46"/>
		</g>
	</g>
	<g id="XMLID_59_">
		<g>
			<defs>
				<rect id="SVGID_00000001655842305553292830000007275888323307989127_" y="202.56" width="512" height="106.89"/>
			</defs>
			<clipPath id="SVGID_00000094584536580536509810000018420906581515619731_">
				<use xlink:href="#SVGID_00000001655842305553292830000007275888323307989127_"  style="overflow:visible;"/>
			</clipPath>
			
				<polygon id="XMLID_60_" style="clip-path:url(#SVGID_00000094584536580536509810000018420906581515619731_);fill:#004186;" points="
				394.03,205.36 414.09,205.36 414.09,291.07 440.18,291.07 440.18,306.5 394.03,306.5 			"/>
		</g>
	</g>
	<g id="XMLID_62_">
		<g>
			<defs>
				<rect id="SVGID_00000039845065841324637220000006757538321786812804_" y="202.56" width="512" height="106.89"/>
			</defs>
			<clipPath id="SVGID_00000179636301983569010090000013462619470613887159_">
				<use xlink:href="#SVGID_00000039845065841324637220000006757538321786812804_"  style="overflow:visible;"/>
			</clipPath>
			<path id="XMLID_63_" style="clip-path:url(#SVGID_00000179636301983569010090000013462619470613887159_);fill:#004186;" d="
				M502.18,223.04c-4.21-3.09-9.82-5.75-15.57-5.75c-8.14,0-12.48,4.77-12.48,10.66c0,6.59,6.73,11.64,17.96,21.04
				c12.91,10.8,19.78,19.36,19.78,31.84c0,12.76-11.5,27.49-33.24,27.49c-9.96,0-21.18-3.23-28.34-10.1l7.01-11.5
				c5.05,3.93,10.94,8.14,19.64,8.14c8,0,15.01-4.49,15.01-14.03c0-11.08-12.91-18.52-20.62-24.83c-9.4-8-17.11-14.17-17.11-27.63
				c0-13.61,13.05-24.55,30.44-24.55c10.94,0,19.78,4.21,24.27,8.84L502.18,223.04z"/>
		</g>
	</g>
</g>
</svg>
